<?xml version="1.0" encoding="UTF-8" standalone="no"?>
<svg
   xmlns:dc="http://purl.org/dc/elements/1.1/"
   xmlns:cc="http://creativecommons.org/ns#"
   xmlns:rdf="http://www.w3.org/1999/02/22-rdf-syntax-ns#"
   xmlns:svg="http://www.w3.org/2000/svg"
   xmlns="http://www.w3.org/2000/svg"
   xmlns:sodipodi="http://sodipodi.sourceforge.net/DTD/sodipodi-0.dtd"
   xmlns:inkscape="http://www.inkscape.org/namespaces/inkscape"
   viewBox="0 0 48 48"
   id="svg2"
   version="1.1"
   inkscape:version="0.91 r13725"
   sodipodi:docname="yoga-spin-lock.svg">
  <metadata
     id="metadata61">
    <rdf:RDF>
      <cc:Work
         rdf:about="">
        <dc:format>image/svg+xml</dc:format>
        <dc:type
           rdf:resource="http://purl.org/dc/dcmitype/StillImage" />
        <dc:title />
      </cc:Work>
    </rdf:RDF>
  </metadata>
  <sodipodi:namedview
     pagecolor="#ffffff"
     bordercolor="#3861aa"
     borderopacity="1"
     objecttolerance="10"
     gridtolerance="10"
     guidetolerance="10"
     inkscape:pageopacity="0"
     inkscape:pageshadow="2"
     inkscape:window-width="1840"
     inkscape:window-height="1044"
     id="namedview59"
     showgrid="false"
     inkscape:zoom="13.906434"
     inkscape:cx="9.2016638"
     inkscape:cy="24.499594"
     inkscape:window-x="80"
     inkscape:window-y="36"
     inkscape:window-maximized="1"
     inkscape:current-layer="svg2" />
  <defs
     id="defs4">
    <linearGradient
       id="linearGradient3764"
       x1="1"
       x2="47"
       gradientUnits="userSpaceOnUse"
       gradientTransform="matrix(0,-1,1,0,-1.5e-6,47.999998)">
      <stop
         stop-color="#3861aa"
         stop-opacity="1"
         id="stop7" />
      <stop
         offset="1"
         stop-color="#3861aa"
         stop-opacity="1"
         id="stop9" />
    </linearGradient>
    <clipPath
       id="clipPath-823937765">
      <g
         transform="translate(0,-1004.3622)"
         id="g12">
        <path
           d="m -24 13 c 0 1.105 -0.672 2 -1.5 2 -0.828 0 -1.5 -0.895 -1.5 -2 0 -1.105 0.672 -2 1.5 -2 0.828 0 1.5 0.895 1.5 2 z"
           transform="matrix(15.333333,0,0,11.5,414.99999,878.8622)"
           fill="#3861aa"
           id="path14" />
      </g>
    </clipPath>
    <clipPath
       id="clipPath-832541835">
      <g
         transform="translate(0,-1004.3622)"
         id="g17">
        <path
           d="m -24 13 c 0 1.105 -0.672 2 -1.5 2 -0.828 0 -1.5 -0.895 -1.5 -2 0 -1.105 0.672 -2 1.5 -2 0.828 0 1.5 0.895 1.5 2 z"
           transform="matrix(15.333333,0,0,11.5,414.99999,878.8622)"
           fill="#3861aa"
           id="path19" />
      </g>
    </clipPath>
  </defs>
  <g
     id="g33" />
  <g
     id="g29"
     style="fill:#e22319;fill-opacity:1"
     transform="matrix(0.80877542,-0.5881176,0.5881176,0.80877542,-9.5254326,18.704212)">
    <path
       inkscape:connector-curvature="0"
       d="M 24,1 C 36.703,1 47,11.297 47,24 47,36.703 36.703,47 24,47 11.297,47 1,36.703 1,24 1,11.297 11.297,1 24,1 Z"
       id="path31"
       style="fill:#e22319;fill-opacity:1" />
  </g>
  <path
     inkscape:connector-curvature="0"
     style="color:#000000;display:block;overflow:visible;visibility:visible;fill:none;fill-opacity:1;fill-rule:nonzero;stroke:#ffffff;stroke-width:1.6;marker:none;stroke-opacity:1;stroke-miterlimit:4;stroke-dasharray:none;stroke-linejoin:round"
     d="m 14.173446,11.781382 c -4.126073,3.202542 -5.4486799,7.268146 -2.403618,11.455694 l 3.107984,4.27408 -0.950269,0.691008 c -0.697169,0.506961 -0.917749,1.401588 -0.480471,2.00293 l 8.169581,11.234753 c 0.437339,0.601427 1.356296,0.667267 2.053495,0.160284 L 40.862447,29.098399 c 0.697272,-0.507035 0.900233,-1.388691 0.462889,-1.990124 L 33.155755,15.873522 c -0.43734,-0.601426 -1.338673,-0.680103 -2.035913,-0.17309 l -0.9678,0.703756 -3.039624,-4.217121 C 23.880022,7.741898 19.445534,8.0315593 14.806976,11.320698 c -0.216468,0.153082 -0.430457,0.303248 -0.633478,0.460647 z m 2.464685,2.501623 c 0.0768,-0.05795 0.166072,-0.120762 0.246359,-0.179145 5.102308,-3.710247 7.349858,0.203138 8.21152,1.2297 l 2.258042,3.105243 -9.607983,6.986642 -2.245364,-3.08781 c -0.797692,-1.059929 -3.673639,-4.387481 1.137426,-8.05463 z"
     id="path2086"
     inkscape:r_cx="true"
     inkscape:r_cy="true" />
</svg>
