<?xml version="1.0" encoding="UTF-8" standalone="no"?>
<svg
   xmlns:dc="http://purl.org/dc/elements/1.1/"
   xmlns:cc="http://creativecommons.org/ns#"
   xmlns:rdf="http://www.w3.org/1999/02/22-rdf-syntax-ns#"
   xmlns:svg="http://www.w3.org/2000/svg"
   xmlns="http://www.w3.org/2000/svg"
   xmlns:sodipodi="http://sodipodi.sourceforge.net/DTD/sodipodi-0.dtd"
   xmlns:inkscape="http://www.inkscape.org/namespaces/inkscape"
   viewBox="0 0 48 48"
   id="svg2"
   version="1.1"
   inkscape:version="0.91 r13725"
   sodipodi:docname="yoga-spin-touch.svg">
  <metadata
     id="metadata61">
    <rdf:RDF>
      <cc:Work
         rdf:about="">
        <dc:format>image/svg+xml</dc:format>
        <dc:type
           rdf:resource="http://purl.org/dc/dcmitype/StillImage" />
        <dc:title></dc:title>
      </cc:Work>
    </rdf:RDF>
  </metadata>
  <sodipodi:namedview
     pagecolor="#ffffff"
     bordercolor="#3861aa"
     borderopacity="1"
     objecttolerance="10"
     gridtolerance="10"
     guidetolerance="10"
     inkscape:pageopacity="0"
     inkscape:pageshadow="2"
     inkscape:window-width="1855"
     inkscape:window-height="1056"
     id="namedview59"
     showgrid="false"
     inkscape:zoom="6.3171441"
     inkscape:cx="24"
     inkscape:cy="24"
     inkscape:window-x="65"
     inkscape:window-y="24"
     inkscape:window-maximized="1"
     inkscape:current-layer="svg2" />
  <defs
     id="defs4">
    <marker
       inkscape:stockid="Arrow1Lstart"
       orient="auto"
       refY="0.0"
       refX="0.0"
       id="Arrow1Lstart"
       style="overflow:visible"
       inkscape:isstock="true">
      <path
         id="path4379"
         d="M 0.0,0.0 L 5.0,-5.0 L -12.5,0.0 L 5.0,5.0 L 0.0,0.0 z "
         style="fill-rule:evenodd;stroke:#ffffff;stroke-width:1pt;stroke-opacity:1;fill:#ffffff;fill-opacity:1"
         transform="scale(0.8) translate(12.5,0)" />
    </marker>
    <linearGradient
       id="linearGradient3764"
       x1="1"
       x2="47"
       gradientUnits="userSpaceOnUse"
       gradientTransform="matrix(0,-1,1,0,-1.5e-6,47.999998)">
      <stop
         stop-color="#3861aa"
         stop-opacity="1"
         id="stop7" />
      <stop
         offset="1"
         stop-color="#3861aa"
         stop-opacity="1"
         id="stop9" />
    </linearGradient>
    <clipPath
       id="clipPath-823937765">
      <g
         transform="translate(0,-1004.3622)"
         id="g12">
        <path
           d="m -24 13 c 0 1.105 -0.672 2 -1.5 2 -0.828 0 -1.5 -0.895 -1.5 -2 0 -1.105 0.672 -2 1.5 -2 0.828 0 1.5 0.895 1.5 2 z"
           transform="matrix(15.333333,0,0,11.5,414.99999,878.8622)"
           fill="#3861aa"
           id="path14" />
      </g>
    </clipPath>
    <clipPath
       id="clipPath-832541835">
      <g
         transform="translate(0,-1004.3622)"
         id="g17">
        <path
           d="m -24 13 c 0 1.105 -0.672 2 -1.5 2 -0.828 0 -1.5 -0.895 -1.5 -2 0 -1.105 0.672 -2 1.5 -2 0.828 0 1.5 0.895 1.5 2 z"
           transform="matrix(15.333333,0,0,11.5,414.99999,878.8622)"
           fill="#3861aa"
           id="path19" />
      </g>
    </clipPath>
  </defs>
  <g
     id="g33" />
  <g
     id="g29"
     style="fill:#e22319;fill-opacity:1"
     transform="matrix(0.80877542,-0.5881176,0.5881176,0.80877542,-9.5254326,18.704212)">
    <path
       inkscape:connector-curvature="0"
       d="M 24,1 C 36.703,1 47,11.297 47,24 47,36.703 36.703,47 24,47 11.297,47 1,36.703 1,24 1,11.297 11.297,1 24,1 Z"
       id="path31"
       style="fill:#e22319;fill-opacity:1" />
  </g>
  <g
     id="g4170"
     transform="matrix(0.8660254,-0.5,0.5,0.8660254,-7.7134963,15.087868)">
    <path
       sodipodi:nodetypes="ccssssscsssssc"
       inkscape:connector-curvature="0"
       id="path4155"
       d="m 14.742271,35.423235 c 0.09052,-8.579659 -0.0067,-18.883164 -0.09052,-23.308074 -0.207084,-2.7096723 4.823869,-2.6808605 4.879694,-0.319882 0.05411,2.288627 0.189096,10.901462 0.09858,10.686971 -0.09052,-0.214492 0.905138,-1.930424 2.98696,-1.858927 2.081822,0.0715 2.161181,2.529796 2.161181,2.529796 0.326352,0 0.585069,-1.680286 3.022454,-1.578507 2.537304,0.105951 2.348559,2.605002 2.348559,2.605002 0,0 0.523141,-1.359535 2.251546,-1.128396 1.892228,0.253046 2.20922,1.443641 2.20922,2.730589 0,1.658363 0.194961,7.691739 0.104455,9.264675 -0.09052,1.572938 -0.271542,3.217371 -2.624905,3.145874 -2.353363,-0.0715 -13.002562,0.01927 -14.81284,-0.05223 -1.81028,-0.0715 -2.534393,-2.716891 -2.534384,-2.716891 z"
       style="fill:none;fill-rule:evenodd;stroke:#ffffff;stroke-width:1.52659512px;stroke-linecap:round;stroke-linejoin:round;stroke-opacity:1" />
    <path
       sodipodi:open="true"
       d="m 11.89292,12.668239 a 5.3275299,5.3275299 0 0 1 2.284409,-5.4019014 5.3275299,5.3275299 0 0 1 5.865001,-0.028795 5.3275299,5.3275299 0 0 1 2.33734,5.3792103"
       sodipodi:end="0.17300131"
       sodipodi:start="2.9587722"
       sodipodi:ry="5.3275299"
       sodipodi:rx="5.3275299"
       sodipodi:cy="11.699674"
       sodipodi:cx="17.131666"
       sodipodi:type="arc"
       id="path4168"
       style="opacity:1;fill:none;fill-opacity:1;stroke:#fffffd;stroke-width:1.60000002;stroke-linecap:round;stroke-linejoin:miter;stroke-miterlimit:4;stroke-dasharray:none;stroke-dashoffset:0;stroke-opacity:1" />
  </g>
</svg>
